<svg xmlns="http://www.w3.org/2000/svg" xmlns:se="http://svg-edit.googlecode.com" xmlns:xlink="http://www.w3.org/1999/xlink" xmlns:dc="http://purl.org/dc/elements/1.1/" xmlns:cc="http://creativecommons.org/ns#" xmlns:rdf="http://www.w3.org/1999/02/22-rdf-syntax-ns#" xmlns:inkscape="http://www.inkscape.org/namespaces/inkscape" width="337.88722595420995" height="224.22556745188535" style="">                                    <title>my vector image</title>                                    <!-- Created with Vector Paint - http://www.vectorpaint.yaks.com/ https://chrome.google.com/webstore/detail/hnbpdiengicdefcjecjbnjnoifekhgdo -->                                    <rect id="backgroundrect" width="100%" height="100%" x="0" y="0" fill="#FFFFFF" stroke="none"/>                                <g class="currentLayer" style=""><title>Layer 1</title><polyline fill="none" fill-opacity="1" stroke="#ebeb1a" stroke-opacity="1" stroke-width="11" stroke-dasharray="none" stroke-linejoin="round" stroke-linecap="butt" stroke-dashoffset="" fill-rule="nonzero" opacity="1" marker-start="" marker-mid="" marker-end="" id="svg_1" points="169.65109252929688,7.2481231689453125 " style="color: rgb(0, 0, 0);" class=""/><polyline fill="#ffe316" stroke="#ffe316" stroke-width="11" stroke-linejoin="round" stroke-dashoffset="" fill-rule="nonzero" marker-start="" marker-mid="" marker-end="" id="svg_2" points="9.500732421875,18.526321411132812 9.500732421875,18.526321411132812 13.2601318359375,18.526321411132812 18.523284912109375,18.526321411132812 29.801483154296875,18.526321411132812 40.327789306640625,18.526321411132812 53.86163330078125,18.526321411132812 63.636077880859375,17.022560119628906 74.91427612304688,17.022560119628906 84.68869018554688,16.270675659179688 96.71878051757812,16.270675659179688 103.48568725585938,16.270675659179688 109.500732421875,16.270675659179688 115.51577758789062,16.270675659179688 121.53079223632812,16.270675659179688 126.04208374023438,16.270675659179688 132.80899047851562,16.270675659179688 140.32778930664062,16.270675659179688 143.3353271484375,16.270675659179688 150.10223388671875,16.270675659179688 159.87667846679688,16.270675659179688 172.65863037109375,16.270675659179688 178.67367553710938,16.270675659179688 184.68869018554688,16.270675659179688 190.7037353515625,16.270675659179688 196.71878051757812,16.270675659179688 202.73382568359375,16.270675659179688 209.500732421875,16.270675659179688 214.01199340820312,16.270675659179688 219.27517700195312,16.270675659179688 223.78643798828125,16.270675659179688 227.54583740234375,16.270675659179688 228.2977294921875,16.270675659179688 229.80148315429688,16.270675659179688 231.30523681640625,16.270675659179688 233.56088256835938,16.270675659179688 238.0721435546875,16.270675659179688 243.3353271484375,16.270675659179688 248.59848022460938,17.022560119628906 253.86163330078125,18.526321411132812 257.62103271484375,18.526321411132812 262.1322937011719,18.526321411132812 267.3954772949219,18.526321411132812 271.90673828125,18.526321411132812 275.6661376953125,18.526321411132812 279.425537109375,18.526321411132812 282.43304443359375,18.526321411132812 286.9443359375,18.526321411132812 289.199951171875,18.526321411132812 291.45562744140625,18.526321411132812 293.71124267578125,18.526321411132812 295.9669189453125,18.526321411132812 298.2225341796875,19.2781982421875 298.97442626953125,20.030075073242188 300.4781494140625,20.030075073242188 301.98193359375,20.781951904296875 302.73382568359375,20.781951904296875 304.237548828125,20.781951904296875 304.98944091796875,21.533843994140625 305.7413330078125,21.533843994140625 306.49322509765625,21.533843994140625 307.9969482421875,21.533843994140625 309.500732421875,21.533843994140625 311.00445556640625,21.533843994140625 311.75634765625,22.285720825195312 311.75634765625,22.285720825195312 311.75634765625,23.03759765625 " style="color: rgb(255, 227, 22);" class=""/><polyline fill="#ffe316" stroke="#ffe316" stroke-width="11" stroke-linejoin="round" stroke-dashoffset="" fill-rule="nonzero" marker-start="" marker-mid="" marker-end="" id="svg_3" points="311.75634765625,23.03759765625 311.75634765625,23.03759765625 311.75634765625,26.045120239257812 311.75634765625,33.56391906738281 311.75634765625,46.34587097167969 311.75634765625,60.63157653808594 311.75634765625,71.90977478027344 311.75634765625,80.18045043945312 311.75634765625,84.69172668457031 311.75634765625,89.2030029296875 311.75634765625,92.96240234375 311.75634765625,96.7218017578125 311.75634765625,100.481201171875 311.75634765625,104.2406005859375 311.75634765625,108.75187683105469 311.75634765625,114.76692199707031 311.75634765625,120.03007507324219 311.75634765625,123.78947448730469 311.75634765625,128.30075073242188 311.75634765625,132.06015014648438 311.00445556640625,133.56390380859375 311.00445556640625,133.56390380859375 311.00445556640625,133.56390380859375 311.00445556640625,135.0676727294922 311.00445556640625,137.32330322265625 311.00445556640625,141.08270263671875 311.00445556640625,145.59397888183594 311.00445556640625,151.60902404785156 311.00445556640625,158.3759307861328 311.00445556640625,162.88722229003906 311.00445556640625,165.8947296142578 311.00445556640625,168.9022674560547 311.00445556640625,171.1578826904297 311.00445556640625,172.66163635253906 310.25262451171875,175.66917419433594 310.25262451171875,178.6766815185547 310.25262451171875,181.68421936035156 309.500732421875,186.1954803466797 308.74884033203125,190.70677185058594 308.74884033203125,192.96241760253906 307.9969482421875,195.21803283691406 307.9969482421875,197.4736785888672 307.9969482421875,198.97743225097656 307.9969482421875,200.48118591308594 307.9969482421875,201.98497009277344 307.9969482421875,203.4887237548828 307.9969482421875,204.24058532714844 307.9969482421875,205.74436950683594 307.9969482421875,206.49623107910156 307.9969482421875,207.99998474121094 307.9969482421875,210.25563049316406 307.9969482421875,210.25563049316406 307.9969482421875,211.75938415527344 307.9969482421875,211.75938415527344 307.9969482421875,212.5112762451172 307.9969482421875,212.5112762451172 " style="color: rgb(255, 227, 22);" class=""/><polyline fill="#ffe316" stroke="#ffe316" stroke-width="11" stroke-linejoin="round" stroke-dashoffset="" fill-rule="nonzero" marker-start="" marker-mid="" marker-end="" id="svg_4" points="310.25262451171875,212.5112762451172 310.25262451171875,212.5112762451172 305.7413330078125,212.5112762451172 296.71875,212.5112762451172 273.4105224609375,212.5112762451172 253.86163330078125,212.5112762451172 220.7789306640625,212.5112762451172 191.45562744140625,212.5112762451172 174.91427612304688,212.5112762451172 153.86163330078125,212.5112762451172 145.5909423828125,212.5112762451172 139.575927734375,212.5112762451172 133.56088256835938,212.5112762451172 129.80148315429688,212.5112762451172 126.04208374023438,212.5112762451172 122.28268432617188,212.5112762451172 120.02703857421875,212.5112762451172 117.77142333984375,212.5112762451172 117.01953125,212.5112762451172 115.51577758789062,212.5112762451172 114.01202392578125,212.5112762451172 111.75637817382812,212.5112762451172 107.99697875976562,212.5112762451172 104.98944091796875,212.5112762451172 101.23004150390625,212.5112762451172 98.2225341796875,212.5112762451172 95.96688842773438,212.5112762451172 95.21502685546875,212.5112762451172 95.21502685546875,212.5112762451172 92.95938110351562,212.5112762451172 89.19998168945312,212.5112762451172 84.68869018554688,212.5112762451172 80.17742919921875,212.5112762451172 74.16238403320312,212.5112762451172 68.1473388671875,212.5112762451172 62.13232421875,212.5112762451172 55.365386962890625,211.75938415527344 50.10223388671875,211.0075225830078 46.34283447265625,211.0075225830078 40.327789306640625,210.25563049316406 36.568389892578125,210.25563049316406 32.05712890625,210.25563049316406 28.2977294921875,210.25563049316406 26.042083740234375,210.25563049316406 23.034576416015625,211.0075225830078 20.7789306640625,211.0075225830078 19.275177001953125,211.75938415527344 18.523284912109375,211.75938415527344 18.523284912109375,211.75938415527344 18.523284912109375,211.75938415527344 " style="color: rgb(255, 227, 22);" class=""/><polyline fill="#ffe316" stroke="#ffe316" stroke-width="11" stroke-linejoin="round" stroke-dashoffset="" fill-rule="nonzero" marker-start="" marker-mid="" marker-end="" id="svg_5" points="10.252609252929688,20.030075073242188 10.252609252929688,20.030075073242188 10.252609252929688,25.293228149414062 11.004501342773438,32.81202697753906 12.508255004882812,43.338348388671875 13.2601318359375,53.86466979980469 14.012008666992188,62.135345458984375 14.012008666992188,68.90225219726562 14.012008666992188,74.16542053222656 14.012008666992188,79.42857360839844 14.012008666992188,86.19549560546875 14.012008666992188,92.21052551269531 14.012008666992188,99.72932434082031 14.012008666992188,111.7593994140625 14.012008666992188,120.03007507324219 14.012008666992188,126.7969970703125 14.012008666992188,134.31578063964844 13.2601318359375,140.33082580566406 12.508255004882812,147.84962463378906 12.508255004882812,153.8646697998047 12.508255004882812,160.63157653808594 12.508255004882812,167.3984832763672 12.508255004882812,172.66163635253906 12.508255004882812,178.6766815185547 12.508255004882812,185.44361877441406 12.508255004882812,190.70677185058594 12.508255004882812,195.9699249267578 12.508255004882812,201.2330780029297 12.508255004882812,204.24058532714844 12.508255004882812,206.49623107910156 13.2601318359375,207.99998474121094 13.2601318359375,209.50376892089844 13.2601318359375,210.25563049316406 14.012008666992188,211.0075225830078 14.012008666992188,211.75938415527344 14.012008666992188,211.75938415527344 14.012008666992188,211.75938415527344 14.763900756835938,211.75938415527344 14.763900756835938,211.75938415527344 14.763900756835938,211.75938415527344 14.763900756835938,211.75938415527344 15.515777587890625,211.75938415527344 15.515777587890625,211.75938415527344 15.515777587890625,211.75938415527344 " style="color: rgb(255, 227, 22);" class=""/><polyline fill="#ffe316" stroke="#ffe316" stroke-width="11" stroke-linejoin="round" stroke-dashoffset="" fill-rule="nonzero" marker-start="" marker-mid="" marker-end="" id="svg_6" points="133.56088256835938,74.91729736328125 133.56088256835938,74.16542053222656 133.56088256835938,75.66917419433594 133.56088256835938,77.17292785644531 133.56088256835938,77.92481994628906 133.56088256835938,80.18045043945312 133.56088256835938,81.6842041015625 133.56088256835938,82.43609619140625 133.56088256835938,83.93984985351562 133.56088256835938,88.45112609863281 133.56088256835938,91.45864868164062 133.56088256835938,96.7218017578125 133.56088256835938,100.481201171875 133.56088256835938,104.2406005859375 133.56088256835938,107.24812316894531 133.56088256835938,110.25564575195312 133.56088256835938,112.51127624511719 133.56088256835938,115.518798828125 133.56088256835938,117.77442932128906 133.56088256835938,120.03007507324219 133.56088256835938,123.03759765625 133.56088256835938,129.05262756347656 133.56088256835938,132.81202697753906 133.56088256835938,136.57142639160156 133.56088256835938,138.8270721435547 133.56088256835938,138.8270721435547 133.56088256835938,141.08270263671875 133.56088256835938,143.33834838867188 133.56088256835938,147.0977325439453 133.56088256835938,150.1052703857422 133.56088256835938,153.11277770996094 133.56088256835938,154.6165313720703 133.56088256835938,156.87217712402344 133.56088256835938,157.6240692138672 133.56088256835938,159.12782287597656 133.56088256835938,159.8796844482422 133.56088256835938,161.3834686279297 134.31277465820312,163.6390838623047 134.31277465820312,164.39097595214844 134.31277465820312,165.8947296142578 134.31277465820312,166.64662170410156 134.31277465820312,166.64662170410156 134.31277465820312,166.64662170410156 134.31277465820312,166.64662170410156 135.06463623046875,166.64662170410156 135.06463623046875,166.64662170410156 135.06463623046875,166.64662170410156 135.06463623046875,166.64662170410156 135.06463623046875,165.8947296142578 135.06463623046875,165.8947296142578 135.8165283203125,165.8947296142578 135.8165283203125,165.8947296142578 136.56838989257812,165.1428680419922 138.82403564453125,164.39097595214844 139.575927734375,163.6390838623047 142.58343505859375,162.1353302001953 147.0947265625,159.12782287597656 150.10223388671875,157.6240692138672 153.1097412109375,156.1202850341797 156.869140625,153.8646697998047 160.6285400390625,151.60902404785156 163.63607788085938,150.1052703857422 166.64358520507812,148.6015167236328 169.65109252929688,146.3458709716797 172.65863037109375,144.84210205078125 175.6661376953125,142.5864715576172 178.67367553710938,141.08270263671875 181.68118286132812,139.57894897460938 185.44058227539062,138.07518005371094 186.9443359375,136.57142639160156 190.7037353515625,135.0676727294922 191.45562744140625,135.0676727294922 192.95938110351562,134.31578063964844 192.95938110351562,134.31578063964844 193.71124267578125,134.31578063964844 193.71124267578125,134.31578063964844 193.71124267578125,134.31578063964844 193.71124267578125,134.31578063964844 194.463134765625,134.31578063964844 195.96688842773438,134.31578063964844 199.72628784179688,132.81202697753906 202.73382568359375,132.06015014648438 205.7413330078125,130.556396484375 207.99697875976562,129.80450439453125 208.74884033203125,129.80450439453125 209.500732421875,129.80450439453125 209.500732421875,129.80450439453125 209.500732421875,129.80450439453125 209.500732421875,129.05262756347656 209.500732421875,129.05262756347656 210.25259399414062,129.05262756347656 211.75637817382812,127.54887390136719 212.50823974609375,126.7969970703125 214.01199340820312,126.04510498046875 214.76388549804688,125.29322814941406 214.76388549804688,125.29322814941406 214.76388549804688,125.29322814941406 214.76388549804688,124.54135131835938 214.76388549804688,124.54135131835938 214.76388549804688,124.54135131835938 214.76388549804688,124.54135131835938 215.51577758789062,123.03759765625 216.26763916015625,122.28570556640625 217.01953125,122.28570556640625 217.77139282226562,120.78195190429688 218.52328491210938,120.03007507324219 218.52328491210938,119.2781982421875 219.27517700195312,119.2781982421875 219.27517700195312,119.2781982421875 219.27517700195312,118.52632141113281 217.77139282226562,117.77442932128906 216.26763916015625,117.02255249023438 214.01199340820312,115.518798828125 210.25259399414062,114.01502990722656 207.99697875976562,113.26315307617188 204.98944091796875,112.51127624511719 203.48568725585938,111.00752258300781 200.47817993164062,110.25564575195312 199.72628784179688,109.50375366210938 198.2225341796875,109.50375366210938 196.71878051757812,108.75187683105469 195.21502685546875,108 193.71124267578125,107.24812316894531 192.20748901367188,106.49624633789062 191.45562744140625,105.74435424804688 189.95184326171875,104.99247741699219 188.44808959960938,104.2406005859375 186.19247436523438,103.48872375488281 183.93682861328125,102.73684692382812 180.17742919921875,101.23307800292969 177.92178344726562,99.72932434082031 175.6661376953125,98.97744750976562 174.16238403320312,98.22557067871094 171.90673828125,97.47367858886719 170.40298461914062,96.7218017578125 168.89923095703125,96.7218017578125 166.64358520507812,95.96992492675781 165.89169311523438,95.21804809570312 164.387939453125,94.46617126464844 163.63607788085938,93.71427917480469 162.13232421875,92.96240234375 160.6285400390625,92.96240234375 159.12478637695312,92.21052551269531 157.62103271484375,90.70677185058594 156.869140625,90.70677185058594 155.36538696289062,89.95487976074219 154.613525390625,89.95487976074219 153.1097412109375,89.2030029296875 151.60598754882812,88.45112609863281 150.8541259765625,87.69924926757812 149.350341796875,87.69924926757812 147.84658813476562,86.94737243652344 146.34283447265625,86.19549560546875 145.5909423828125,85.443603515625 144.08718872070312,84.69172668457031 142.58343505859375,83.93984985351562 141.07968139648438,83.18797302246094 140.32778930664062,82.43609619140625 139.575927734375,81.6842041015625 139.575927734375,81.6842041015625 138.82403564453125,80.93232727050781 138.07217407226562,80.18045043945312 137.32028198242188,80.18045043945312 137.32028198242188,79.42857360839844 136.56838989257812,79.42857360839844 136.56838989257812,78.67669677734375 135.8165283203125,77.92481994628906 135.8165283203125,77.92481994628906 135.06463623046875,77.17292785644531 135.06463623046875,77.17292785644531 135.06463623046875,77.17292785644531 135.06463623046875,77.17292785644531 134.31277465820312,76.42105102539062 134.31277465820312,76.42105102539062 134.31277465820312,75.66917419433594 133.56088256835938,74.91729736328125 133.56088256835938,74.91729736328125 133.56088256835938,74.91729736328125 133.56088256835938,74.16542053222656 133.56088256835938,73.41352844238281 132.80899047851562,73.41352844238281 " style="color: rgb(255, 227, 22);" class=""/><polyline fill="#ffe316" stroke="#484848" stroke-width="4" stroke-linejoin="round" stroke-dashoffset="" fill-rule="nonzero" marker-start="" marker-mid="" marker-end="" id="svg_7" points="35.8165283203125,32.81202697753906 35.8165283203125,32.81202697753906 35.8165283203125,34.3157958984375 35.8165283203125,35.06767272949219 35.8165283203125,37.32330322265625 35.8165283203125,38.82707214355469 35.8165283203125,41.08270263671875 35.8165283203125,42.58647155761719 35.8165283203125,44.84210205078125 35.8165283203125,47.097747802734375 35.8165283203125,50.10527038574219 35.8165283203125,52.36090087890625 35.8165283203125,53.86466979980469 35.8165283203125,54.616546630859375 35.8165283203125,55.36842346191406 35.8165283203125,56.12030029296875 35.8165283203125,56.12030029296875 35.8165283203125,56.87217712402344 35.8165283203125,56.87217712402344 36.568389892578125,56.87217712402344 36.568389892578125,56.87217712402344 36.568389892578125,56.87217712402344 39.575927734375,56.87217712402344 42.58343505859375,56.87217712402344 46.34283447265625,56.87217712402344 50.10223388671875,56.12030029296875 53.86163330078125,55.36842346191406 57.62103271484375,55.36842346191406 60.6285400390625,54.616546630859375 64.387939453125,54.616546630859375 66.64358520507812,54.616546630859375 68.89923095703125,53.86466979980469 71.15487670898438,53.86466979980469 73.4105224609375,53.86466979980469 74.16238403320312,53.86466979980469 74.91427612304688,53.86466979980469 75.6661376953125,53.86466979980469 75.6661376953125,53.86466979980469 75.6661376953125,53.86466979980469 75.6661376953125,53.11277770996094 75.6661376953125,53.11277770996094 74.91427612304688,52.36090087890625 74.91427612304688,51.60902404785156 74.16238403320312,50.10527038574219 74.16238403320312,48.60150146484375 74.16238403320312,47.097747802734375 74.16238403320312,46.34587097167969 74.16238403320312,45.59397888183594 74.16238403320312,44.09022521972656 74.16238403320312,42.58647155761719 74.16238403320312,41.8345947265625 74.16238403320312,40.33082580566406 73.4105224609375,39.578948974609375 73.4105224609375,38.82707214355469 73.4105224609375,38.0751953125 73.4105224609375,38.0751953125 73.4105224609375,37.32330322265625 73.4105224609375,37.32330322265625 72.65863037109375,37.32330322265625 72.65863037109375,37.32330322265625 72.65863037109375,37.32330322265625 71.90673828125,37.32330322265625 69.651123046875,37.32330322265625 66.64358520507812,37.32330322265625 64.387939453125,37.32330322265625 60.6285400390625,37.32330322265625 56.869140625,37.32330322265625 53.86163330078125,37.32330322265625 50.8541259765625,37.32330322265625 48.598480224609375,37.32330322265625 46.34283447265625,37.32330322265625 44.087188720703125,38.0751953125 42.58343505859375,38.0751953125 41.079681396484375,38.0751953125 39.575927734375,38.0751953125 38.82403564453125,38.0751953125 38.82403564453125,38.0751953125 38.072174072265625,38.0751953125 38.072174072265625,38.0751953125 38.072174072265625,38.0751953125 38.072174072265625,38.0751953125 38.072174072265625,37.32330322265625 38.072174072265625,37.32330322265625 38.82403564453125,37.32330322265625 " style="color: rgb(255, 227, 22);" class=""/><polyline fill="#ffe316" stroke="#484848" stroke-width="4" stroke-linejoin="round" stroke-dashoffset="" fill-rule="nonzero" marker-start="" marker-mid="" marker-end="" id="svg_8" points="99.72628784179688,33.56391906738281 99.72628784179688,34.3157958984375 99.72628784179688,35.819549560546875 99.72628784179688,38.0751953125 100.47817993164062,41.08270263671875 100.47817993164062,41.08270263671875 101.23004150390625,43.338348388671875 101.98193359375,43.338348388671875 101.98193359375,44.84210205078125 101.98193359375,45.59397888183594 102.73382568359375,46.34587097167969 102.73382568359375,46.34587097167969 102.73382568359375,46.34587097167969 102.73382568359375,47.097747802734375 103.48568725585938,47.097747802734375 103.48568725585938,47.097747802734375 104.23757934570312,47.097747802734375 104.98944091796875,47.097747802734375 106.49322509765625,47.097747802734375 108.74884033203125,47.097747802734375 113.2601318359375,47.097747802734375 117.01953125,47.097747802734375 120.02703857421875,47.84962463378906 123.78643798828125,47.84962463378906 127.54583740234375,48.60150146484375 130.55337524414062,48.60150146484375 133.56088256835938,48.60150146484375 137.32028198242188,48.60150146484375 140.32778930664062,48.60150146484375 143.3353271484375,48.60150146484375 145.5909423828125,48.60150146484375 147.0947265625,48.60150146484375 148.59848022460938,48.60150146484375 148.59848022460938,48.60150146484375 148.59848022460938,48.60150146484375 148.59848022460938,48.60150146484375 148.59848022460938,47.84962463378906 148.59848022460938,47.84962463378906 148.59848022460938,47.097747802734375 148.59848022460938,47.097747802734375 148.59848022460938,46.34587097167969 148.59848022460938,45.59397888183594 148.59848022460938,44.84210205078125 147.84658813476562,43.338348388671875 147.0947265625,41.08270263671875 147.0947265625,40.33082580566406 146.34283447265625,38.0751953125 145.5909423828125,36.57142639160156 144.83908081054688,34.3157958984375 144.83908081054688,32.81202697753906 144.83908081054688,31.308273315429688 144.83908081054688,30.556396484375 144.83908081054688,29.804519653320312 144.08718872070312,29.804519653320312 144.08718872070312,29.804519653320312 144.08718872070312,29.804519653320312 143.3353271484375,29.804519653320312 141.83157348632812,29.804519653320312 141.07968139648438,29.804519653320312 136.56838989257812,29.804519653320312 133.56088256835938,29.804519653320312 129.04959106445312,29.804519653320312 124.538330078125,30.556396484375 119.27517700195312,30.556396484375 114.76388549804688,31.308273315429688 111.75637817382812,32.060150146484375 107.24508666992188,32.81202697753906 105.7413330078125,32.81202697753906 104.23757934570312,32.81202697753906 102.73382568359375,32.81202697753906 101.23004150390625,32.81202697753906 99.72628784179688,32.81202697753906 98.97442626953125,32.81202697753906 98.2225341796875,32.81202697753906 97.47067260742188,33.56391906738281 97.47067260742188,33.56391906738281 96.71878051757812,33.56391906738281 " style="color: rgb(255, 227, 22);" class=""/><polyline fill="#ffe316" stroke="#484848" stroke-width="4" stroke-linejoin="round" stroke-dashoffset="" fill-rule="nonzero" marker-start="" marker-mid="" marker-end="" id="svg_9" points="182.43307495117188,29.052627563476562 182.43307495117188,29.052627563476562 182.43307495117188,29.804519653320312 182.43307495117188,31.308273315429688 182.43307495117188,32.81202697753906 182.43307495117188,35.06767272949219 182.43307495117188,37.32330322265625 182.43307495117188,38.82707214355469 182.43307495117188,39.578948974609375 182.43307495117188,40.33082580566406 182.43307495117188,41.08270263671875 182.43307495117188,41.8345947265625 182.43307495117188,43.338348388671875 182.43307495117188,44.09022521972656 182.43307495117188,44.84210205078125 182.43307495117188,47.097747802734375 182.43307495117188,48.60150146484375 183.1849365234375,49.35337829589844 183.1849365234375,50.10527038574219 183.1849365234375,50.10527038574219 183.1849365234375,50.857147216796875 183.93682861328125,50.857147216796875 183.93682861328125,50.857147216796875 184.68869018554688,50.857147216796875 185.44058227539062,52.36090087890625 186.19247436523438,53.11277770996094 186.9443359375,53.86466979980469 187.69622802734375,54.616546630859375 188.44808959960938,55.36842346191406 189.95184326171875,56.12030029296875 191.45562744140625,56.12030029296875 193.71124267578125,56.12030029296875 195.96688842773438,56.12030029296875 199.72628784179688,56.12030029296875 201.98193359375,56.12030029296875 205.7413330078125,56.12030029296875 209.500732421875,56.12030029296875 213.2601318359375,56.12030029296875 217.01953125,56.12030029296875 219.27517700195312,56.12030029296875 223.03457641601562,55.36842346191406 227.54583740234375,53.86466979980469 231.30523681640625,53.11277770996094 234.312744140625,53.11277770996094 236.56838989257812,52.36090087890625 238.0721435546875,52.36090087890625 239.575927734375,52.36090087890625 240.32778930664062,52.36090087890625 241.07968139648438,52.36090087890625 241.83154296875,52.36090087890625 241.83154296875,52.36090087890625 242.58343505859375,52.36090087890625 243.3353271484375,51.60902404785156 243.3353271484375,51.60902404785156 244.08718872070312,50.857147216796875 244.83908081054688,50.857147216796875 245.5909423828125,50.857147216796875 245.5909423828125,50.10527038574219 244.83908081054688,49.35337829589844 244.08718872070312,48.60150146484375 243.3353271484375,47.097747802734375 242.58343505859375,46.34587097167969 241.07968139648438,44.84210205078125 240.32778930664062,42.58647155761719 238.82403564453125,41.08270263671875 238.0721435546875,38.82707214355469 236.56838989257812,37.32330322265625 235.06463623046875,35.819549560546875 235.06463623046875,35.06767272949219 233.56088256835938,35.06767272949219 232.80899047851562,35.06767272949219 229.80148315429688,34.3157958984375 227.54583740234375,33.56391906738281 223.03457641601562,32.81202697753906 219.27517700195312,32.81202697753906 213.2601318359375,32.060150146484375 209.500732421875,32.060150146484375 206.49322509765625,32.060150146484375 204.23757934570312,32.060150146484375 201.98193359375,32.060150146484375 200.47817993164062,32.060150146484375 197.47064208984375,32.060150146484375 195.96688842773438,32.060150146484375 194.463134765625,32.060150146484375 192.95938110351562,32.060150146484375 190.7037353515625,32.060150146484375 189.19998168945312,32.060150146484375 186.9443359375,32.060150146484375 186.19247436523438,32.060150146484375 184.68869018554688,32.060150146484375 183.1849365234375,32.060150146484375 182.43307495117188,32.060150146484375 181.68118286132812,32.060150146484375 181.68118286132812,32.060150146484375 181.68118286132812,32.060150146484375 181.68118286132812,32.060150146484375 " style="color: rgb(255, 227, 22);" class=""/><polyline fill="#ffe316" stroke="#484848" stroke-width="4" stroke-linejoin="round" stroke-dashoffset="" fill-rule="nonzero" marker-start="" marker-mid="" marker-end="" id="svg_10" points="254.61349487304688,32.81202697753906 254.61349487304688,33.56391906738281 254.61349487304688,35.819549560546875 254.61349487304688,38.82707214355469 254.61349487304688,41.08270263671875 254.61349487304688,46.34587097167969 255.36538696289062,50.10527038574219 255.36538696289062,53.11277770996094 255.36538696289062,54.616546630859375 255.36538696289062,56.12030029296875 255.36538696289062,56.87217712402344 255.36538696289062,56.87217712402344 255.36538696289062,56.87217712402344 256.1172790527344,56.87217712402344 256.869140625,56.87217712402344 258.3728942871094,56.12030029296875 261.38043212890625,56.12030029296875 265.13983154296875,55.36842346191406 270.4029846191406,54.616546630859375 275.6661376953125,53.86466979980469 280.9293212890625,53.86466979980469 283.1849365234375,53.11277770996094 286.9443359375,53.11277770996094 288.4481201171875,53.11277770996094 289.95184326171875,53.11277770996094 290.7037353515625,53.11277770996094 291.45562744140625,53.11277770996094 291.45562744140625,53.11277770996094 292.20751953125,53.11277770996094 292.9593505859375,53.11277770996094 293.71124267578125,53.11277770996094 293.71124267578125,53.11277770996094 293.71124267578125,53.11277770996094 293.71124267578125,53.11277770996094 293.71124267578125,52.36090087890625 293.71124267578125,51.60902404785156 292.9593505859375,50.10527038574219 292.9593505859375,47.097747802734375 292.9593505859375,45.59397888183594 292.9593505859375,44.09022521972656 292.9593505859375,43.338348388671875 293.71124267578125,41.8345947265625 294.463134765625,41.8345947265625 295.21502685546875,41.08270263671875 295.21502685546875,41.08270263671875 295.21502685546875,40.33082580566406 295.21502685546875,40.33082580566406 295.21502685546875,40.33082580566406 294.463134765625,39.578948974609375 292.9593505859375,39.578948974609375 291.45562744140625,38.82707214355469 289.95184326171875,38.0751953125 289.199951171875,37.32330322265625 287.69622802734375,37.32330322265625 286.19244384765625,36.57142639160156 284.688720703125,36.57142639160156 280.9293212890625,36.57142639160156 276.41802978515625,36.57142639160156 271.1548767089844,36.57142639160156 266.6435852050781,36.57142639160156 262.8841857910156,36.57142639160156 259.8766784667969,36.57142639160156 258.3728942871094,36.57142639160156 256.869140625,36.57142639160156 256.1172790527344,36.57142639160156 254.61349487304688,36.57142639160156 254.61349487304688,36.57142639160156 254.61349487304688,36.57142639160156 " style="color: rgb(255, 227, 22);" class=""/><polyline fill="#ffe316" stroke="#484848" stroke-width="4" stroke-linejoin="round" stroke-dashoffset="" fill-rule="nonzero" marker-start="" marker-mid="" marker-end="" id="svg_11" points="122.28268432617188,74.16542053222656 122.28268432617188,74.91729736328125 122.28268432617188,76.42105102539062 122.28268432617188,77.92481994628906 122.28268432617188,81.6842041015625 122.28268432617188,83.18797302246094 122.28268432617188,83.93984985351562 122.28268432617188,87.69924926757812 122.28268432617188,89.2030029296875 122.28268432617188,94.46617126464844 122.28268432617188,96.7218017578125 122.28268432617188,99.72932434082031 122.28268432617188,102.73684692382812 122.28268432617188,106.49624633789062 122.28268432617188,111.00752258300781 123.03457641601562,114.01502990722656 123.78643798828125,117.02255249023438 123.78643798828125,121.53382873535156 124.538330078125,123.78947448730469 125.29019165039062,126.7969970703125 125.29019165039062,129.80450439453125 125.29019165039062,132.81202697753906 125.29019165039062,136.57142639160156 125.29019165039062,138.8270721435547 125.29019165039062,141.08270263671875 125.29019165039062,143.33834838867188 125.29019165039062,145.59397888183594 125.29019165039062,148.6015167236328 125.29019165039062,152.3608856201172 125.29019165039062,155.36842346191406 125.29019165039062,159.8796844482422 125.29019165039062,162.88722229003906 125.29019165039062,165.1428680419922 125.29019165039062,166.64662170410156 125.29019165039062,166.64662170410156 125.29019165039062,167.3984832763672 125.29019165039062,167.3984832763672 125.29019165039062,168.15037536621094 125.29019165039062,168.15037536621094 125.29019165039062,168.9022674560547 125.29019165039062,169.6541290283203 125.29019165039062,170.40602111816406 125.29019165039062,171.1578826904297 125.29019165039062,171.90977478027344 125.29019165039062,172.66163635253906 " style="color: rgb(255, 227, 22);" class=""/><polyline fill="#ffe316" stroke="#484848" stroke-width="4" stroke-linejoin="round" stroke-dashoffset="" fill-rule="nonzero" marker-start="" marker-mid="" marker-end="" id="svg_12" points="125.29019165039062,176.42103576660156 125.29019165039062,176.42103576660156 126.04208374023438,176.42103576660156 127.54583740234375,176.42103576660156 129.04959106445312,176.42103576660156 130.55337524414062,176.42103576660156 132.05712890625,176.42103576660156 133.56088256835938,176.42103576660156 135.06463623046875,176.42103576660156 136.56838989257812,176.42103576660156 140.32778930664062,174.16542053222656 142.58343505859375,172.66163635253906 145.5909423828125,170.40602111816406 150.10223388671875,168.15037536621094 153.86163330078125,165.8947296142578 157.62103271484375,163.6390838623047 160.6285400390625,161.3834686279297 163.63607788085938,159.12782287597656 165.89169311523438,156.87217712402344 167.39547729492188,154.6165313720703 168.89923095703125,153.11277770996094 169.65109252929688,152.3608856201172 169.65109252929688,151.60902404785156 169.65109252929688,151.60902404785156 169.65109252929688,150.8571319580078 169.65109252929688,150.8571319580078 169.65109252929688,150.8571319580078 171.15487670898438,149.35337829589844 173.41049194335938,146.3458709716797 177.16989135742188,143.33834838867188 180.92929077148438,140.33082580566406 184.68869018554688,137.32330322265625 189.19998168945312,135.0676727294922 194.463134765625,132.06015014648438 201.23004150390625,129.05262756347656 204.23757934570312,127.54887390136719 207.24508666992188,126.04510498046875 208.74884033203125,126.04510498046875 208.74884033203125,125.29322814941406 209.500732421875,125.29322814941406 209.500732421875,125.29322814941406 210.25259399414062,125.29322814941406 210.25259399414062,124.54135131835938 211.00448608398438,124.54135131835938 211.75637817382812,123.78947448730469 211.75637817382812,123.78947448730469 212.50823974609375,123.78947448730469 " style="color: rgb(255, 227, 22);" class=""/><polyline fill="#ffe316" stroke="#484848" stroke-width="4" stroke-linejoin="round" stroke-dashoffset="" fill-rule="nonzero" marker-start="" marker-mid="" marker-end="" id="svg_13" points="213.2601318359375,121.53382873535156 212.50823974609375,121.53382873535156 211.75637817382812,121.53382873535156 209.500732421875,120.78195190429688 204.98944091796875,119.2781982421875 200.47817993164062,117.02255249023438 195.21502685546875,114.01502990722656 188.44808959960938,111.00752258300781 186.19247436523438,109.50375366210938 182.43307495117188,107.24812316894531 180.17742919921875,105.74435424804688 177.92178344726562,104.2406005859375 174.16238403320312,101.98495483398438 170.40298461914062,100.481201171875 168.1473388671875,99.72932434082031 164.387939453125,97.47367858886719 162.13232421875,95.96992492675781 159.87667846679688,94.46617126464844 157.62103271484375,93.71427917480469 156.11727905273438,92.21052551269531 152.35787963867188,91.45864868164062 150.10223388671875,89.95487976074219 148.59848022460938,89.2030029296875 146.34283447265625,88.45112609863281 144.83908081054688,86.94737243652344 142.58343505859375,86.19549560546875 140.32778930664062,85.443603515625 139.575927734375,84.69172668457031 138.07217407226562,83.93984985351562 136.56838989257812,82.43609619140625 135.8165283203125,81.6842041015625 134.31277465820312,80.18045043945312 132.80899047851562,80.18045043945312 130.55337524414062,79.42857360839844 128.2977294921875,78.67669677734375 126.79397583007812,77.92481994628906 125.29019165039062,77.17292785644531 124.538330078125,76.42105102539062 123.78643798828125,76.42105102539062 123.03457641601562,76.42105102539062 122.28268432617188,76.42105102539062 121.53079223632812,75.66917419433594 120.7789306640625,75.66917419433594 120.7789306640625,75.66917419433594 120.7789306640625,74.91729736328125 120.02703857421875,74.91729736328125 120.7789306640625,74.91729736328125 " style="color: rgb(255, 227, 22);" class=""/><polyline fill="#ffe316" stroke="#484848" stroke-width="4" stroke-linejoin="round" stroke-dashoffset="" fill-rule="nonzero" marker-start="" marker-mid="" marker-end="" id="svg_14" points="32.80902099609375,174.16542053222656 32.80902099609375,174.9172821044922 32.80902099609375,174.9172821044922 32.80902099609375,175.66917419433594 32.80902099609375,176.42103576660156 32.80902099609375,178.6766815185547 32.80902099609375,182.4360809326172 32.80902099609375,184.6917266845703 32.80902099609375,188.4511260986328 32.80902099609375,189.9548797607422 33.560882568359375,191.45863342285156 33.560882568359375,192.96241760253906 34.312774658203125,192.96241760253906 34.312774658203125,194.46617126464844 35.06463623046875,195.21803283691406 35.06463623046875,195.9699249267578 35.06463623046875,196.72178649902344 35.8165283203125,196.72178649902344 35.8165283203125,197.4736785888672 35.8165283203125,197.4736785888672 36.568389892578125,198.22557067871094 36.568389892578125,198.22557067871094 38.072174072265625,198.97743225097656 38.82403564453125,198.97743225097656 40.327789306640625,198.97743225097656 41.079681396484375,198.97743225097656 42.58343505859375,198.97743225097656 44.087188720703125,198.97743225097656 47.846588134765625,198.22557067871094 50.10223388671875,197.4736785888672 53.86163330078125,196.72178649902344 56.869140625,195.9699249267578 59.876678466796875,195.9699249267578 62.884185791015625,195.21803283691406 65.13983154296875,195.21803283691406 67.39547729492188,195.21803283691406 68.89923095703125,195.21803283691406 70.40298461914062,195.21803283691406 71.90673828125,195.21803283691406 73.4105224609375,195.21803283691406 75.6661376953125,195.21803283691406 76.41802978515625,195.21803283691406 77.92178344726562,195.21803283691406 77.92178344726562,195.21803283691406 78.67367553710938,195.21803283691406 78.67367553710938,195.21803283691406 79.425537109375,195.21803283691406 79.425537109375,195.21803283691406 79.425537109375,195.21803283691406 79.425537109375,193.7142791748047 79.425537109375,192.2105255126953 79.425537109375,190.70677185058594 78.67367553710938,186.94737243652344 77.92178344726562,183.93983459472656 77.92178344726562,181.68421936035156 77.16989135742188,178.6766815185547 77.16989135742188,177.1729278564453 77.16989135742188,176.42103576660156 77.16989135742188,176.42103576660156 77.16989135742188,175.66917419433594 77.16989135742188,175.66917419433594 77.16989135742188,175.66917419433594 77.16989135742188,175.66917419433594 77.16989135742188,174.9172821044922 76.41802978515625,174.9172821044922 76.41802978515625,174.9172821044922 74.16238403320312,174.16542053222656 71.15487670898438,174.16542053222656 66.64358520507812,173.4135284423828 62.13232421875,173.4135284423828 57.62103271484375,173.4135284423828 52.357879638671875,173.4135284423828 49.350372314453125,173.4135284423828 46.34283447265625,173.4135284423828 43.3353271484375,173.4135284423828 40.327789306640625,173.4135284423828 38.072174072265625,173.4135284423828 36.568389892578125,174.16542053222656 35.06463623046875,174.16542053222656 33.560882568359375,174.16542053222656 32.80902099609375,174.16542053222656 32.05712890625,174.16542053222656 32.05712890625,174.16542053222656 32.05712890625,174.16542053222656 " style="color: rgb(255, 227, 22);" class=""/><polyline fill="#ffe316" stroke="#484848" stroke-width="4" stroke-linejoin="round" stroke-dashoffset="" fill-rule="nonzero" marker-start="" marker-mid="" marker-end="" id="svg_15" points="92.20748901367188,175.66917419433594 92.20748901367188,175.66917419433594 92.20748901367188,176.42103576660156 92.20748901367188,177.1729278564453 92.20748901367188,178.6766815185547 92.20748901367188,180.18043518066406 92.20748901367188,180.9323272705078 92.20748901367188,182.4360809326172 92.20748901367188,183.93983459472656 92.20748901367188,185.44361877441406 92.20748901367188,186.1954803466797 92.95938110351562,186.94737243652344 92.95938110351562,187.69923400878906 92.95938110351562,188.4511260986328 92.95938110351562,189.20301818847656 93.71127319335938,189.9548797607422 93.71127319335938,190.70677185058594 93.71127319335938,191.45863342285156 93.71127319335938,192.2105255126953 94.463134765625,192.96241760253906 94.463134765625,193.7142791748047 95.21502685546875,195.21803283691406 95.21502685546875,195.9699249267578 95.96688842773438,197.4736785888672 95.96688842773438,198.97743225097656 95.96688842773438,199.7293243408203 96.71878051757812,199.7293243408203 96.71878051757812,200.48118591308594 97.47067260742188,200.48118591308594 97.47067260742188,200.48118591308594 98.97442626953125,200.48118591308594 99.72628784179688,200.48118591308594 101.23004150390625,200.48118591308594 101.98193359375,200.48118591308594 104.23757934570312,200.48118591308594 106.49322509765625,199.7293243408203 109.500732421875,198.97743225097656 112.50823974609375,198.97743225097656 116.26763916015625,198.22557067871094 120.02703857421875,197.4736785888672 122.28268432617188,197.4736785888672 125.29019165039062,196.72178649902344 128.2977294921875,196.72178649902344 129.80148315429688,196.72178649902344 131.30523681640625,196.72178649902344 132.05712890625,196.72178649902344 133.56088256835938,196.72178649902344 135.06463623046875,196.72178649902344 136.56838989257812,196.72178649902344 138.07217407226562,196.72178649902344 139.575927734375,196.72178649902344 140.32778930664062,197.4736785888672 141.07968139648438,197.4736785888672 141.83157348632812,197.4736785888672 141.83157348632812,197.4736785888672 141.83157348632812,197.4736785888672 141.83157348632812,197.4736785888672 141.83157348632812,196.72178649902344 141.83157348632812,196.72178649902344 141.83157348632812,196.72178649902344 141.83157348632812,195.9699249267578 141.83157348632812,195.21803283691406 141.83157348632812,193.7142791748047 141.07968139648438,192.2105255126953 141.07968139648438,191.45863342285156 140.32778930664062,189.20301818847656 140.32778930664062,189.20301818847656 140.32778930664062,189.20301818847656 140.32778930664062,188.4511260986328 140.32778930664062,188.4511260986328 140.32778930664062,188.4511260986328 140.32778930664062,188.4511260986328 139.575927734375,187.69923400878906 138.82403564453125,186.94737243652344 138.07217407226562,186.1954803466797 135.8165283203125,183.93983459472656 132.80899047851562,182.4360809326172 130.55337524414062,181.68421936035156 129.04959106445312,180.9323272705078 126.79397583007812,180.9323272705078 124.538330078125,180.9323272705078 122.28268432617188,180.9323272705078 120.02703857421875,180.9323272705078 117.77142333984375,180.9323272705078 115.51577758789062,180.9323272705078 114.01202392578125,180.9323272705078 111.00448608398438,180.9323272705078 107.99697875976562,180.9323272705078 105.7413330078125,180.9323272705078 102.73382568359375,180.9323272705078 100.47817993164062,180.9323272705078 98.97442626953125,180.9323272705078 98.2225341796875,180.9323272705078 97.47067260742188,180.9323272705078 96.71878051757812,180.18043518066406 96.71878051757812,180.18043518066406 96.71878051757812,180.18043518066406 95.96688842773438,179.42857360839844 95.21502685546875,179.42857360839844 95.21502685546875,179.42857360839844 94.463134765625,179.42857360839844 94.463134765625,178.6766815185547 94.463134765625,178.6766815185547 94.463134765625,178.6766815185547 94.463134765625,178.6766815185547 " style="color: rgb(255, 227, 22);" class=""/><polyline fill="#ffe316" stroke="#484848" stroke-width="4" stroke-linejoin="round" stroke-dashoffset="" fill-rule="nonzero" marker-start="" marker-mid="" marker-end="" id="svg_16" points="174.91427612304688,182.4360809326172 174.91427612304688,183.18797302246094 174.91427612304688,183.18797302246094 174.91427612304688,183.18797302246094 174.91427612304688,183.93983459472656 174.91427612304688,185.44361877441406 174.91427612304688,186.1954803466797 174.91427612304688,186.94737243652344 174.91427612304688,189.20301818847656 175.6661376953125,190.70677185058594 175.6661376953125,192.96241760253906 175.6661376953125,194.46617126464844 175.6661376953125,195.9699249267578 176.41802978515625,197.4736785888672 176.41802978515625,197.4736785888672 176.41802978515625,198.22557067871094 176.41802978515625,198.97743225097656 177.16989135742188,199.7293243408203 177.16989135742188,199.7293243408203 177.16989135742188,200.48118591308594 177.92178344726562,200.48118591308594 177.92178344726562,200.48118591308594 178.67367553710938,200.48118591308594 178.67367553710938,200.48118591308594 180.17742919921875,200.48118591308594 182.43307495117188,200.48118591308594 184.68869018554688,200.48118591308594 187.69622802734375,200.48118591308594 189.95184326171875,200.48118591308594 193.71124267578125,200.48118591308594 197.47064208984375,200.48118591308594 200.47817993164062,201.2330780029297 204.23757934570312,201.2330780029297 207.99697875976562,201.98497009277344 211.00448608398438,202.73683166503906 213.2601318359375,202.73683166503906 214.76388549804688,202.73683166503906 215.51577758789062,202.73683166503906 215.51577758789062,202.73683166503906 216.26763916015625,202.73683166503906 216.26763916015625,202.73683166503906 216.26763916015625,202.73683166503906 217.01953125,202.73683166503906 218.52328491210938,202.73683166503906 219.27517700195312,202.73683166503906 220.02703857421875,202.73683166503906 220.02703857421875,202.73683166503906 220.7789306640625,201.98497009277344 220.7789306640625,201.2330780029297 220.7789306640625,199.7293243408203 220.7789306640625,196.72178649902344 220.7789306640625,193.7142791748047 220.7789306640625,192.96241760253906 220.7789306640625,192.2105255126953 220.7789306640625,191.45863342285156 220.7789306640625,191.45863342285156 220.7789306640625,191.45863342285156 220.7789306640625,190.70677185058594 220.7789306640625,189.9548797607422 220.7789306640625,189.20301818847656 220.02703857421875,186.1954803466797 220.02703857421875,185.44361877441406 220.02703857421875,184.6917266845703 219.27517700195312,184.6917266845703 219.27517700195312,184.6917266845703 218.52328491210938,184.6917266845703 217.01953125,183.93983459472656 214.01199340820312,183.18797302246094 211.75637817382812,182.4360809326172 208.74884033203125,182.4360809326172 204.98944091796875,181.68421936035156 201.23004150390625,181.68421936035156 194.463134765625,181.68421936035156 189.95184326171875,181.68421936035156 186.9443359375,181.68421936035156 183.93682861328125,181.68421936035156 182.43307495117188,181.68421936035156 180.92929077148438,181.68421936035156 180.17742919921875,181.68421936035156 179.425537109375,181.68421936035156 178.67367553710938,181.68421936035156 178.67367553710938,181.68421936035156 177.92178344726562,181.68421936035156 177.92178344726562,181.68421936035156 177.16989135742188,181.68421936035156 " style="color: rgb(255, 227, 22);" class=""/><polyline fill="#ffe316" stroke="#484848" stroke-width="4" stroke-linejoin="round" stroke-dashoffset="" fill-rule="nonzero" marker-start="" marker-mid="" marker-end="" id="svg_17" points="247.84658813476562,184.6917266845703 247.84658813476562,185.44361877441406 247.84658813476562,185.44361877441406 247.84658813476562,188.4511260986328 247.84658813476562,189.20301818847656 247.84658813476562,191.45863342285156 247.84658813476562,192.2105255126953 247.84658813476562,192.96241760253906 248.59848022460938,193.7142791748047 248.59848022460938,193.7142791748047 248.59848022460938,193.7142791748047 249.350341796875,193.7142791748047 249.350341796875,193.7142791748047 250.10223388671875,193.7142791748047 250.10223388671875,192.96241760253906 253.1097412109375,192.2105255126953 257.62103271484375,191.45863342285156 262.1322937011719,190.70677185058594 265.8916931152344,190.70677185058594 270.4029846191406,190.70677185058594 273.4105224609375,190.70677185058594 276.41802978515625,190.70677185058594 279.425537109375,189.9548797607422 281.68115234375,189.9548797607422 283.93682861328125,189.9548797607422 285.4405517578125,189.9548797607422 286.9443359375,189.9548797607422 287.69622802734375,189.9548797607422 287.69622802734375,189.9548797607422 288.4481201171875,189.9548797607422 289.199951171875,189.9548797607422 289.199951171875,189.9548797607422 289.199951171875,189.20301818847656 289.199951171875,189.20301818847656 289.199951171875,188.4511260986328 289.199951171875,185.44361877441406 288.4481201171875,183.93983459472656 288.4481201171875,180.18043518066406 287.69622802734375,178.6766815185547 287.69622802734375,177.92481994628906 287.69622802734375,177.1729278564453 286.9443359375,177.1729278564453 286.19244384765625,177.1729278564453 285.4405517578125,177.92481994628906 280.9293212890625,178.6766815185547 271.1548767089844,180.18043518066406 265.13983154296875,180.18043518066406 260.6285400390625,180.9323272705078 257.62103271484375,180.9323272705078 254.61349487304688,180.9323272705078 253.86163330078125,180.9323272705078 253.1097412109375,180.9323272705078 252.35787963867188,180.9323272705078 251.60598754882812,181.68421936035156 250.8541259765625,181.68421936035156 249.350341796875,181.68421936035156 248.59848022460938,181.68421936035156 247.0947265625,182.4360809326172 245.5909423828125,182.4360809326172 244.83908081054688,183.18797302246094 244.08718872070312,183.18797302246094 244.08718872070312,183.18797302246094 244.08718872070312,183.18797302246094 " style="color: rgb(255, 227, 22);" class=""/><polyline fill="#ffe316" stroke="#484848" stroke-width="4" stroke-linejoin="round" stroke-dashoffset="" fill-rule="nonzero" marker-start="" marker-mid="" marker-end="" id="svg_18" points="11.004501342773438,23.789474487304688 11.004501342773438,24.541351318359375 11.004501342773438,30.556396484375 11.004501342773438,34.3157958984375 11.004501342773438,38.0751953125 11.004501342773438,41.8345947265625 11.004501342773438,44.84210205078125 11.004501342773438,49.35337829589844 11.004501342773438,53.86466979980469 11.004501342773438,64.39097595214844 11.004501342773438,71.90977478027344 11.004501342773438,80.18045043945312 11.004501342773438,86.19549560546875 10.252609252929688,91.45864868164062 10.252609252929688,97.47367858886719 10.252609252929688,105.74435424804688 10.252609252929688,114.76692199707031 10.252609252929688,125.29322814941406 10.252609252929688,135.0676727294922 10.252609252929688,141.83457946777344 10.252609252929688,141.83457946777344 10.252609252929688,144.09022521972656 10.252609252929688,145.59397888183594 10.252609252929688,153.11277770996094 10.252609252929688,157.6240692138672 10.252609252929688,167.3984832763672 10.252609252929688,176.42103576660156 10.252609252929688,186.1954803466797 9.500732421875,192.2105255126953 9.500732421875,197.4736785888672 8.748855590820312,200.48118591308594 8.748855590820312,201.98497009277344 8.748855590820312,203.4887237548828 7.996978759765625,205.74436950683594 7.996978759765625,207.99998474121094 7.2451019287109375,212.5112762451172 7.2451019287109375,215.51878356933594 6.4932098388671875,217.77442932128906 6.4932098388671875,220.0300750732422 6.4932098388671875,221.53382873535156 6.4932098388671875,222.2857208251953 6.4932098388671875,223.03758239746094 " style="color: rgb(255, 227, 22);" class=""/><polyline fill="#ffe316" stroke="#484848" stroke-width="4" stroke-linejoin="round" stroke-dashoffset="" fill-rule="nonzero" marker-start="" marker-mid="" marker-end="" id="svg_19" points="7.2451019287109375,220.0300750732422 7.996978759765625,220.0300750732422 9.500732421875,220.0300750732422 14.763900756835938,220.0300750732422 23.034576416015625,220.0300750732422 29.801483154296875,220.0300750732422 38.072174072265625,220.0300750732422 44.087188720703125,220.0300750732422 47.846588134765625,220.0300750732422 48.598480224609375,220.0300750732422 50.8541259765625,220.0300750732422 53.109771728515625,220.0300750732422 56.869140625,220.0300750732422 60.6285400390625,220.0300750732422 65.8917236328125,220.0300750732422 71.15487670898438,220.0300750732422 77.16989135742188,220.7819366455078 86.19247436523438,220.7819366455078 88.44808959960938,220.7819366455078 94.463134765625,220.7819366455078 98.97442626953125,220.7819366455078 104.23757934570312,220.7819366455078 109.500732421875,220.7819366455078 116.26763916015625,220.7819366455078 124.538330078125,220.7819366455078 135.06463623046875,220.7819366455078 139.575927734375,220.7819366455078 143.3353271484375,220.7819366455078 145.5909423828125,220.7819366455078 147.0947265625,220.7819366455078 151.60598754882812,220.7819366455078 156.869140625,220.7819366455078 164.387939453125,220.7819366455078 171.15487670898438,220.7819366455078 177.16989135742188,220.7819366455078 183.1849365234375,220.7819366455078 189.19998168945312,220.0300750732422 194.463134765625,220.0300750732422 201.23004150390625,220.0300750732422 206.49322509765625,219.27818298339844 211.00448608398438,219.27818298339844 215.51577758789062,218.5263214111328 220.7789306640625,217.0225372314453 227.54583740234375,216.2706756591797 238.82403564453125,214.01502990722656 250.8541259765625,213.26316833496094 267.3954772949219,211.75938415527344 285.4405517578125,211.75938415527344 295.9669189453125,211.75938415527344 304.237548828125,211.75938415527344 311.75634765625,211.75938415527344 320.02703857421875,211.75938415527344 323.0345458984375,211.75938415527344 326.04205322265625,211.75938415527344 328.2977294921875,211.75938415527344 330.5533447265625,212.5112762451172 331.30523681640625,212.5112762451172 332.80902099609375,212.5112762451172 334.312744140625,212.5112762451172 335.06463623046875,212.5112762451172 335.06463623046875,212.5112762451172 335.8165283203125,212.5112762451172 335.06463623046875,212.5112762451172 335.06463623046875,212.5112762451172 333.56085205078125,213.26316833496094 332.80902099609375,213.26316833496094 332.05712890625,213.26316833496094 331.30523681640625,213.26316833496094 329.04962158203125,213.26316833496094 326.04205322265625,213.26316833496094 323.0345458984375,213.26316833496094 320.02703857421875,213.26316833496094 318.52325439453125,212.5112762451172 317.77142333984375,212.5112762451172 317.01953125,211.75938415527344 " style="color: rgb(255, 227, 22);" class=""/><polyline fill="#ffe316" stroke="#484848" stroke-width="4" stroke-linejoin="round" stroke-dashoffset="" fill-rule="nonzero" marker-start="" marker-mid="" marker-end="" id="svg_20" points="317.77142333984375,211.75938415527344 317.77142333984375,211.0075225830078 317.77142333984375,208.7518768310547 317.77142333984375,199.7293243408203 317.77142333984375,176.42103576660156 317.77142333984375,159.8796844482422 317.77142333984375,150.1052703857422 317.77142333984375,145.59397888183594 317.77142333984375,141.83457946777344 317.77142333984375,141.08270263671875 317.77142333984375,138.8270721435547 317.77142333984375,133.56390380859375 317.01953125,126.04510498046875 315.5157470703125,109.50375366210938 314.01202392578125,89.95487976074219 312.50823974609375,77.17292785644531 311.75634765625,64.39097595214844 311.00445556640625,57.624053955078125 310.25262451171875,52.36090087890625 308.74884033203125,49.35337829589844 308.74884033203125,48.60150146484375 308.74884033203125,48.60150146484375 308.74884033203125,44.84210205078125 308.74884033203125,39.578948974609375 308.74884033203125,32.060150146484375 308.74884033203125,22.285720825195312 308.74884033203125,15.518798828125 308.74884033203125,8 308.74884033203125,6.496246337890625 308.74884033203125,6.496246337890625 " style="color: rgb(255, 227, 22);" class=""/><polyline fill="#ffe316" stroke="#484848" stroke-width="4" stroke-linejoin="round" stroke-dashoffset="" fill-rule="nonzero" marker-start="" marker-mid="" marker-end="" id="svg_21" points="308.74884033203125,14.015037536621094 305.7413330078125,14.015037536621094 294.463134765625,14.015037536621094 283.1849365234375,14.015037536621094 261.38043212890625,14.015037536621094 250.8541259765625,14.015037536621094 246.34283447265625,14.015037536621094 239.575927734375,14.015037536621094 235.8165283203125,14.015037536621094 232.05712890625,14.015037536621094 229.80148315429688,14.015037536621094 228.2977294921875,14.015037536621094 224.538330078125,14.015037536621094 223.03457641601562,14.015037536621094 220.02703857421875,14.015037536621094 216.26763916015625,14.015037536621094 212.50823974609375,14.015037536621094 208.74884033203125,14.015037536621094 203.48568725585938,14.015037536621094 200.47817993164062,14.015037536621094 198.2225341796875,14.015037536621094 193.71124267578125,14.015037536621094 188.44808959960938,14.015037536621094 173.41049194335938,14.015037536621094 159.87667846679688,14.015037536621094 146.34283447265625,14.015037536621094 135.8165283203125,14.015037536621094 128.2977294921875,14.015037536621094 121.53079223632812,14.015037536621094 114.76388549804688,14.015037536621094 105.7413330078125,14.766921997070312 98.97442626953125,14.766921997070312 92.95938110351562,14.766921997070312 86.9443359375,14.766921997070312 81.68118286132812,14.766921997070312 76.41802978515625,14.766921997070312 73.4105224609375,14.015037536621094 68.89923095703125,14.015037536621094 65.13983154296875,14.015037536621094 59.876678466796875,14.015037536621094 55.365386962890625,14.015037536621094 50.10223388671875,14.015037536621094 46.34283447265625,14.015037536621094 38.072174072265625,14.015037536621094 33.560882568359375,14.015037536621094 30.553375244140625,14.015037536621094 26.793975830078125,14.015037536621094 23.034576416015625,14.015037536621094 20.02703857421875,14.015037536621094 17.77142333984375,14.015037536621094 16.26763916015625,14.015037536621094 14.763900756835938,14.015037536621094 14.012008666992188,14.766921997070312 12.508255004882812,14.766921997070312 11.756378173828125,15.518798828125 10.252609252929688,16.270675659179688 8.748855590820312,16.270675659179688 6.4932098388671875,17.774436950683594 4.237579345703125,18.526321411132812 2.73382568359375,20.030075073242188 1.98193359375,20.781951904296875 1.2300567626953125,20.781951904296875 1.2300567626953125,20.781951904296875 1.2300567626953125,21.533843994140625 1.2300567626953125,21.533843994140625 1.2300567626953125,21.533843994140625 1.98193359375,21.533843994140625 2.73382568359375,21.533843994140625 2.73382568359375,22.285720825195312 3.4857025146484375,22.285720825195312 3.4857025146484375,23.03759765625 4.237579345703125,23.03759765625 4.9894561767578125,23.03759765625 4.9894561767578125,23.789474487304688 5.7413330078125,23.789474487304688 5.7413330078125,23.789474487304688 5.7413330078125,23.789474487304688 6.4932098388671875,23.789474487304688 6.4932098388671875,23.789474487304688 7.2451019287109375,23.789474487304688 7.2451019287109375,23.789474487304688 7.996978759765625,23.789474487304688 8.748855590820312,23.789474487304688 9.500732421875,23.789474487304688 9.500732421875,24.541351318359375 10.252609252929688,25.293228149414062 10.252609252929688,26.045120239257812 11.004501342773438,26.045120239257812 11.004501342773438,26.7969970703125 11.004501342773438,27.548873901367188 " style="color: rgb(255, 227, 22);" class=""/></g></svg>